<svg xmlns="http://www.w3.org/2000/svg" width="161" height="58" viewBox="0 0 161 58" fill="none"><path d="M28.9854 57.3333C44.9936 57.3333 57.9707 44.4988 57.9707 28.6667C57.9707 12.8345 44.9936 0 28.9854 0C12.9772 0 0 12.8345 0 28.6667C0 44.4988 12.9772 57.3333 28.9854 57.3333Z" fill="#59A52C"></path><path d="M43.5969 29.2226C43.9429 31.8367 43.1504 35.0138 41.0274 38.5809C35.6414 47.8171 22.0521 48.8187 12.9863 44.0269L15.1354 34.7415H18.5695C24.0292 41.192 30.3543 36.7447 31.12 33.9319C31.6633 31.9287 30.428 29.9983 28.3035 29.216H26.0064C24.6525 28.7619 23.185 28.7619 21.8311 29.216H24.1036C22.7396 29.6968 21.4875 30.4447 20.4224 31.415H17.3097L17.8038 29.216H15.5067L19.9045 10.0813H45.4505L43.3997 19.0982H29.5879L28.9703 21.7615C36.3818 21.7615 40.7275 24.5714 41.3228 29.2138H43.5954L43.5969 29.2226Z" fill="white"></path><path d="M73.6439 18.9642C72.5356 18.9556 71.4362 18.7669 70.3898 18.4056C69.3257 18.0699 68.3191 17.5766 67.4044 16.9425C67.3358 16.8978 67.285 16.8311 67.2604 16.7536C67.2359 16.676 67.2392 16.5925 67.2697 16.5171L68.6411 13.8044C68.6596 13.754 68.692 13.7097 68.7348 13.6768C68.7776 13.6438 68.829 13.6235 68.883 13.6182C68.9336 13.606 68.9862 13.6043 69.0375 13.6135C69.0888 13.6226 69.1375 13.6423 69.1806 13.6712C69.7831 14.1896 70.4637 14.6118 71.198 14.9223C71.8523 15.2004 72.5567 15.3451 73.2689 15.3477C73.9357 15.3921 74.596 15.1934 75.1247 14.7891C75.3382 14.6161 75.5077 14.396 75.6197 14.1466C75.7318 13.8971 75.7832 13.6252 75.7699 13.3526C75.7842 13.0587 75.7366 12.7652 75.6302 12.4906C75.5237 12.2159 75.3607 11.9661 75.1515 11.757C74.5466 11.3918 73.8408 11.2242 73.1342 11.2779C72.5962 11.2779 72.3275 11.2779 71.4398 11.3044C70.5521 11.3309 69.8771 11.3574 69.4225 11.4111C69.3262 11.4175 69.2308 11.3892 69.1538 11.3316C69.1139 11.2991 69.0814 11.2586 69.0582 11.2128C69.035 11.1671 69.0217 11.1171 69.0191 11.066V2.34056C69.0207 2.24929 69.058 2.16219 69.1233 2.09765C69.1885 2.0331 69.2766 1.99617 69.3689 1.99466H78.9689C79.0612 1.99617 79.1493 2.0331 79.2145 2.09765C79.2798 2.16219 79.3171 2.24929 79.3187 2.34056V5.37267C79.3171 5.46394 79.2798 5.55104 79.2145 5.61558C79.1493 5.68012 79.0612 5.71704 78.9689 5.71856H72.9988V7.63203H73.9133C75.0522 7.60394 76.1828 7.83034 77.221 8.29438C78.129 8.67966 78.9045 9.31726 79.4533 10.1298C79.9948 11.0206 80.2742 12.0432 80.26 13.0825C80.285 14.1767 79.9961 15.2556 79.4266 16.1941C78.8742 17.0853 78.0702 17.7972 77.1138 18.2422C76.0281 18.7417 74.8411 18.9887 73.6439 18.9642ZM91.4205 18.9642C89.9018 18.983 88.4061 18.5971 87.0904 17.847C85.8149 17.096 84.7657 16.0215 84.0513 14.7347C83.3099 13.3893 82.9302 11.8783 82.9485 10.3462C82.9329 8.82794 83.3225 7.33244 84.0781 6.01073C84.8226 4.7426 85.8885 3.68839 87.1707 2.95214C88.3547 2.28867 89.6797 1.90933 91.0389 1.84465C92.3982 1.77997 93.7538 2.03175 94.9967 2.57974C96.0902 3.05648 97.0767 3.74373 97.8989 4.60139C97.951 4.66539 97.9795 4.74511 97.9795 4.82732C97.9795 4.90954 97.951 4.98927 97.8989 5.05327L95.3443 7.1279C95.3113 7.16736 95.2704 7.19959 95.2241 7.22253C95.1779 7.24546 95.1273 7.2586 95.0756 7.26111C95.0234 7.26143 94.9718 7.24953 94.9251 7.22638C94.8785 7.20323 94.838 7.16949 94.807 7.1279C94.175 6.3373 93.2654 5.81085 92.2589 5.65322C91.2525 5.49559 90.2229 5.71833 89.3748 6.27714C88.6326 6.78194 88.043 7.4766 87.6688 8.28697C87.2946 9.09733 87.15 9.99298 87.2503 10.8783C87.3111 11.7798 87.6506 12.6411 88.223 13.3453C88.7954 14.0494 89.5729 14.5625 90.4501 14.8149C91.2077 15.0659 92.0227 15.094 92.7962 14.8957C93.5696 14.6974 94.2682 14.2812 94.807 13.6977C94.8429 13.6655 94.8857 13.6416 94.9322 13.6279C94.9787 13.6141 95.0277 13.6108 95.0756 13.6182C95.1219 13.6132 95.1687 13.6204 95.2112 13.6391C95.2537 13.6579 95.2904 13.6875 95.3175 13.725L97.9264 15.5339C97.9786 15.5979 98.007 15.6776 98.007 15.7598C98.007 15.8421 97.9786 15.9218 97.9264 15.9858C97.0677 16.8913 96.0463 17.6309 94.9141 18.1671C93.8224 18.682 92.6299 18.954 91.4205 18.9642ZM100.43 18.9642V3.03162C100.43 2.36927 100.564 2.23384 100.779 2.23384H112.559C112.603 2.23167 112.648 2.23825 112.689 2.2532C112.731 2.26815 112.769 2.29117 112.802 2.32091C112.834 2.35066 112.86 2.38653 112.879 2.42642C112.897 2.46631 112.907 2.50943 112.909 2.55325V5.55886C112.907 5.65012 112.87 5.73723 112.805 5.80177C112.739 5.86631 112.651 5.90324 112.559 5.90476H104.597V8.66972H109.627C109.719 8.67123 109.807 8.70816 109.873 8.77271C109.938 8.83725 109.975 8.92435 109.977 9.01561V11.9947C109.975 12.086 109.938 12.1731 109.873 12.2376C109.807 12.3022 109.719 12.3391 109.627 12.3406H104.598V15.1865H112.529C112.621 15.1881 112.71 15.225 112.775 15.2895C112.84 15.3541 112.877 15.4412 112.879 15.5324V18.5116C112.877 18.6028 112.84 18.6899 112.775 18.7545C112.71 18.819 112.621 18.8559 112.529 18.8575H100.779C100.564 18.8575 100.43 18.6977 100.43 18.9642ZM115.947 18.9642C115.855 18.9626 115.767 18.9257 115.701 18.8612C115.636 18.7966 115.599 18.7095 115.597 18.6183V2.68645C115.599 2.59519 115.636 2.50809 115.701 2.44354C115.767 2.379 115.855 2.34207 115.947 2.34056H119.121C119.234 2.34467 119.341 2.3925 119.418 2.47376L125.604 11.916V2.68645C125.605 2.59519 125.642 2.50809 125.708 2.44354C125.773 2.379 125.861 2.34207 125.953 2.34056H129.261C129.353 2.34207 129.441 2.379 129.507 2.44354C129.572 2.50809 129.609 2.59519 129.611 2.68645V18.6183C129.609 18.7095 129.572 18.7966 129.507 18.8612C129.441 18.9257 129.353 18.9626 129.261 18.9642H126.087C125.974 18.96 125.867 18.9122 125.79 18.831L119.631 9.44172V18.6183C119.63 18.7095 119.592 18.7966 119.527 18.8612C119.462 18.9257 119.374 18.9626 119.281 18.9642H115.947ZM136.924 18.9642C136.88 18.9628 136.836 18.9528 136.796 18.9346C136.755 18.9164 136.719 18.8905 136.689 18.8583C136.659 18.8261 136.636 18.7883 136.621 18.747C136.606 18.7058 136.599 18.662 136.601 18.6183V6.06445H132.918C132.874 6.06663 132.83 6.06004 132.788 6.04509C132.747 6.03014 132.708 6.00713 132.676 5.97739C132.643 5.94765 132.617 5.91178 132.599 5.87189C132.58 5.83199 132.57 5.78888 132.569 5.74506V2.68645C132.57 2.59519 132.608 2.50809 132.673 2.44354C132.738 2.379 132.826 2.34207 132.918 2.34056H144.452C144.499 2.33913 144.545 2.34709 144.588 2.36397C144.631 2.38085 144.67 2.40628 144.703 2.43869C144.736 2.4711 144.761 2.5098 144.778 2.55241C144.796 2.59503 144.804 2.64064 144.802 2.68645V5.74506C144.803 5.78953 144.794 5.83367 144.777 5.87458C144.759 5.91549 144.733 5.95224 144.7 5.98241C144.667 6.01258 144.628 6.0355 144.585 6.04964C144.542 6.06378 144.497 6.06883 144.452 6.06445H140.768V18.6183C140.767 18.7095 140.729 18.7966 140.664 18.8612C140.599 18.9257 140.511 18.9626 140.418 18.9642H136.924ZM153.598 19.1202C152.291 19.1188 150.995 18.8751 149.779 18.4019C148.584 17.9673 147.481 17.3187 146.525 16.4884C146.473 16.4371 146.438 16.3719 146.424 16.301C146.41 16.23 146.417 16.1565 146.444 16.0896L147.386 12.925C147.404 12.8745 147.437 12.8303 147.479 12.7973C147.522 12.7644 147.574 12.7441 147.628 12.7388C147.68 12.7245 147.735 12.7244 147.787 12.7384C147.84 12.7523 147.887 12.7799 147.925 12.8183C149.35 14.1481 150.964 15.3448 152.981 15.4515C153.529 15.5093 154.083 15.4732 154.618 15.3448C156.204 14.8392 155.533 13.2436 154.349 12.7645C153.946 12.6051 153.381 12.4189 152.655 12.2059C151.751 11.972 150.869 11.6604 150.019 11.275C149.279 10.9367 148.633 10.4255 148.137 9.78541C147.593 8.99563 147.319 8.05408 147.357 7.0992C147.335 6.13417 147.617 5.18628 148.163 4.38649C148.721 3.59438 149.495 2.97622 150.396 2.60477C151.436 2.18324 152.552 1.97516 153.677 1.99319C154.782 1.98988 155.88 2.16055 156.931 2.49878C157.928 2.80294 158.878 3.24153 159.755 3.80216C159.822 3.84816 159.869 3.91661 159.889 3.99482C159.909 4.07304 159.9 4.15572 159.863 4.22754L158.975 7.20665C158.961 7.25504 158.934 7.29845 158.895 7.33153C158.857 7.36461 158.81 7.38593 158.76 7.39285C158.716 7.40816 158.669 7.41372 158.623 7.40914C158.576 7.40456 158.531 7.38996 158.491 7.36636C157.281 6.62158 156.071 5.71709 154.646 5.5309C153.704 5.39769 152.279 5.45142 151.956 6.56859C151.553 8.00516 153.677 8.37755 154.646 8.66972C155.554 8.92792 156.444 9.24758 157.308 9.62645C158.05 9.98733 158.695 10.517 159.191 11.1719C159.759 11.9713 160.043 12.9349 159.997 13.9111C160.017 14.917 159.716 15.9036 159.137 16.7306C158.567 17.5385 157.773 18.1665 156.851 18.5395C155.813 18.9328 154.709 19.1298 153.598 19.1202Z" fill="black"></path><path d="M83.1593 56.027C80.3069 56.0624 77.4974 55.3377 75.0259 53.9288C72.6301 52.5184 70.6591 50.5002 69.317 48.0832C67.9244 45.5563 67.2111 42.7182 67.2453 39.8405C67.2159 36.9886 67.9476 34.1794 69.3668 31.6965C70.7652 29.3143 72.7676 27.334 75.1763 25.951C77.4004 24.7047 79.8892 23.9921 82.4426 23.8705C84.9959 23.7489 87.5424 24.2218 89.8773 25.2511C91.9329 26.146 93.7876 27.437 95.3333 29.0486C95.4314 29.1689 95.4849 29.3187 95.4849 29.4732C95.4849 29.6277 95.4314 29.7776 95.3333 29.8979L90.5336 33.7984C90.4715 33.8723 90.3945 33.9327 90.3075 33.9756C90.2205 34.0186 90.1255 34.0432 90.0284 34.0479C89.9302 34.0487 89.8333 34.0265 89.7455 33.9831C89.6576 33.9398 89.5815 33.8765 89.5231 33.7984C88.336 32.3131 86.6271 31.324 84.7363 31.0278C82.8455 30.7316 80.9112 31.1501 79.3181 32.1999C76.2872 34.0486 75.1755 37.4465 75.3273 40.8436C75.4426 42.5361 76.0811 44.1527 77.1563 45.4743C78.2315 46.796 79.6915 47.7589 81.3384 48.2325C82.7617 48.7044 84.2929 48.7573 85.746 48.3848C87.199 48.0123 88.5115 47.2305 89.5238 46.1344C89.5916 46.0741 89.6722 46.0296 89.7596 46.0041C89.847 45.9786 89.9391 45.9728 90.0291 45.9872C90.116 45.9775 90.2039 45.9909 90.2838 46.026C90.3637 46.061 90.4327 46.1165 90.4838 46.1866L95.3839 49.5845C95.482 49.7048 95.5355 49.8546 95.5355 50.0091C95.5355 50.1636 95.482 50.3135 95.3839 50.4338C93.7717 52.1342 91.854 53.5234 89.7285 54.5308C87.6763 55.4992 85.4345 56.0109 83.1608 56.0299L83.1593 56.027ZM101.242 56.027C101.155 56.0297 101.068 56.0148 100.987 55.9831C100.906 55.9515 100.832 55.9037 100.771 55.8428C100.709 55.7819 100.661 55.7092 100.629 55.6291C100.597 55.549 100.582 55.4632 100.585 55.3771V25.4491C100.582 25.363 100.597 25.2772 100.629 25.1971C100.661 25.1171 100.709 25.0443 100.771 24.9834C100.832 24.9225 100.906 24.8748 100.987 24.8431C101.068 24.8114 101.155 24.7965 101.242 24.7992H112.709C115.583 24.7483 118.421 25.4371 120.944 26.798C123.33 28.0689 125.294 29.995 126.599 32.3442C127.958 34.8103 128.654 37.5799 128.62 40.3881C128.668 43.2205 127.953 46.0145 126.549 48.4835C125.218 50.8493 123.216 52.7776 120.789 54.0296C118.232 55.3964 115.361 56.0851 112.455 56.0285L101.242 56.027ZM108.415 49.0355H112.861C114.263 49.0563 115.644 48.6931 116.851 47.986C118.038 47.2362 118.998 46.1833 119.63 44.9385C120.318 43.5386 120.664 41.9983 120.64 40.4418C120.667 38.8793 120.302 37.3346 119.579 35.9452C118.926 34.6704 117.929 33.5985 116.699 32.8475C115.442 32.1236 114.012 31.7441 112.557 31.748H108.414L108.415 49.0355ZM134.332 56.027C134.158 56.0238 133.993 55.9543 133.871 55.8331C133.748 55.7119 133.678 55.5485 133.675 55.3771V25.4491C133.678 25.2777 133.748 25.1143 133.871 24.9931C133.993 24.8719 134.158 24.8024 134.332 24.7992H140.293C140.504 24.8076 140.703 24.8971 140.849 25.0487L152.468 42.7851V25.4491C152.472 25.2777 152.542 25.1143 152.664 24.9931C152.787 24.8719 152.952 24.8024 153.125 24.7992H159.34C159.513 24.8024 159.678 24.8719 159.801 24.9931C159.923 25.1143 159.993 25.2777 159.997 25.4491V55.3779C159.993 55.5492 159.923 55.7127 159.801 55.8339C159.678 55.955 159.513 56.0245 159.34 56.0277H153.378C153.167 56.0191 152.968 55.9293 152.823 55.7775L141.254 38.1405V55.3779C141.25 55.5492 141.18 55.7127 141.058 55.8339C140.935 55.955 140.77 56.0245 140.597 56.0277H134.332L134.332 56.027Z" fill="black"></path></svg>